<svg width="239" height="222" viewBox="0 0 239 222" fill="none" xmlns="http://www.w3.org/2000/svg">
<g clip-path="url(#clip0_10_59)">
<path d="M55.0319 153.637L73.5361 118.459L32.0953 86.603L10.6943 127.288L44.971 153.637H55.0319Z" fill="#F0F0F0"/>
<path d="M81.254 164.611H35.4184V153.457H81.254V164.611ZM36.0137 163.891H80.6588V154.177H36.0137V163.891Z" fill="#3F3D56"/>
<path d="M75.599 162.632C77.2428 162.632 78.5753 161.021 78.5753 159.034C78.5753 157.047 77.2428 155.436 75.599 155.436C73.9552 155.436 72.6227 157.047 72.6227 159.034C72.6227 161.021 73.9552 162.632 75.599 162.632Z" fill="#75E8E1"/>
<path d="M67.2652 162.632C68.909 162.632 70.2416 161.021 70.2416 159.034C70.2416 157.047 68.909 155.436 67.2652 155.436C65.6215 155.436 64.2889 157.047 64.2889 159.034C64.2889 161.021 65.6215 162.632 67.2652 162.632Z" fill="#75E8E1"/>
<path d="M58.9315 162.632C60.5753 162.632 61.9078 161.021 61.9078 159.034C61.9078 157.047 60.5753 155.436 58.9315 155.436C57.2877 155.436 55.9552 157.047 55.9552 159.034C55.9552 161.021 57.2877 162.632 58.9315 162.632Z" fill="#75E8E1"/>
<path d="M50.5978 162.632C52.2415 162.632 53.5741 161.021 53.5741 159.034C53.5741 157.047 52.2415 155.436 50.5978 155.436C48.954 155.436 47.6214 157.047 47.6214 159.034C47.6214 161.021 48.954 162.632 50.5978 162.632Z" fill="#75E8E1"/>
<path d="M42.264 162.632C43.9078 162.632 45.2403 161.021 45.2403 159.034C45.2403 157.047 43.9078 155.436 42.264 155.436C40.6202 155.436 39.2877 157.047 39.2877 159.034C39.2877 161.021 40.6202 162.632 42.264 162.632Z" fill="#75E8E1"/>
<path d="M135.721 40.658V13.3128H147.031V0H91.6712V66.9238H138.995V60.3805C138.995 59.1608 139.194 57.953 139.58 56.8261C139.966 55.6992 140.532 54.6753 141.245 53.8128C141.959 52.9503 142.806 52.2662 143.738 51.7994C144.67 51.3326 145.669 51.0924 146.678 51.0924H147.031V40.658H135.721Z" fill="#F0F0F0"/>
<path d="M197.034 172.707H160.127V182.062H197.034V172.707Z" fill="#75E8E1"/>
<path d="M205.07 126.652H150.9V135.287H205.07V126.652Z" fill="#F0F0F0"/>
<path d="M231.559 221.28H0V222H231.559V221.28Z" fill="#3F3D56"/>
<path d="M214.352 222H146.678C144.562 221.997 142.534 220.98 141.038 219.171C139.541 217.362 138.7 214.91 138.697 212.352V60.3806C138.7 57.8227 139.541 55.3703 141.038 53.5616C142.534 51.7529 144.562 50.7355 146.678 50.7326H214.352C216.468 50.7355 218.496 51.7529 219.992 53.5616C221.488 55.3703 222.33 57.8227 222.332 60.3806V212.352C222.33 214.91 221.488 217.362 219.992 219.171C218.496 220.98 216.468 221.997 214.352 222V222ZM146.678 51.4522C144.72 51.4549 142.843 52.3964 141.458 54.0702C140.074 55.744 139.295 58.0134 139.293 60.3806V212.352C139.295 214.719 140.074 216.989 141.458 218.662C142.843 220.336 144.72 221.278 146.678 221.28H214.352C216.31 221.278 218.187 220.336 219.572 218.662C220.956 216.989 221.735 214.719 221.737 212.352V60.3806C221.735 58.0134 220.956 55.744 219.572 54.0702C218.187 52.3964 216.31 51.4549 214.352 51.4522H146.678Z" fill="#3F3D56"/>
<path d="M172.479 57.9287C172.126 57.9287 171.78 57.8021 171.487 57.5649C171.193 57.3277 170.964 56.9905 170.829 56.596C170.694 56.2015 170.658 55.7675 170.727 55.3487C170.796 54.9299 170.966 54.5452 171.216 54.2433C171.466 53.9414 171.784 53.7358 172.13 53.6525C172.477 53.5692 172.836 53.612 173.162 53.7754C173.488 53.9388 173.767 54.2154 173.964 54.5705C174.16 54.9255 174.265 55.3429 174.265 55.7699C174.264 56.3422 174.076 56.891 173.741 57.2957C173.406 57.7004 172.952 57.9281 172.479 57.9287V57.9287ZM172.479 54.3306C172.243 54.3306 172.013 54.415 171.817 54.5732C171.622 54.7313 171.469 54.9561 171.379 55.2191C171.289 55.4821 171.265 55.7715 171.311 56.0506C171.357 56.3298 171.47 56.5863 171.637 56.7875C171.803 56.9888 172.016 57.1259 172.247 57.1814C172.477 57.237 172.717 57.2085 172.934 57.0995C173.152 56.9906 173.338 56.8061 173.469 56.5695C173.599 56.3328 173.669 56.0545 173.669 55.7699C173.669 55.3883 173.543 55.0224 173.32 54.7526C173.097 54.4828 172.794 54.331 172.479 54.3306V54.3306Z" fill="#3F3D56"/>
<path d="M190.039 55.41H176.943V56.1297H190.039V55.41Z" fill="#3F3D56"/>
<path d="M216.975 61.1669V89.9514C210.66 89.951 204.604 86.9183 200.139 81.5202C195.673 76.1222 193.165 68.8009 193.164 61.1669H216.975Z" fill="#75E8E1"/>
<path d="M217.273 212.285H143.757V60.8071H217.273V212.285ZM144.352 211.566H216.677V61.5267H144.352V211.566Z" fill="#3F3D56"/>
<path opacity="0.1" d="M199.712 88.1524C204.151 88.1524 207.748 83.8029 207.748 78.4376C207.748 73.0723 204.151 68.7229 199.712 68.7229C195.274 68.7229 191.676 73.0723 191.676 78.4376C191.676 83.8029 195.274 88.1524 199.712 88.1524Z" fill="black"/>
<path d="M198.522 89.2318C202.96 89.2318 206.558 84.8823 206.558 79.517C206.558 74.1517 202.96 69.8023 198.522 69.8023C194.084 69.8023 190.486 74.1517 190.486 79.517C190.486 84.8823 194.084 89.2318 198.522 89.2318Z" fill="#75E8E1"/>
<path d="M158.341 66.9238H147.031V71.9611H158.341V66.9238Z" fill="#3F3D56"/>
<path d="M164.592 114.778H153.281V119.815H164.592V114.778Z" fill="#3F3D56"/>
<path d="M208.046 133.488H153.281V124.133H208.046V133.488ZM153.877 132.768H207.451V124.853H153.877V132.768Z" fill="#3F3D56"/>
<path d="M205.07 153.997H150.9V162.632H205.07V153.997Z" fill="#F0F0F0"/>
<path d="M164.592 142.123H153.281V147.16H164.592V142.123Z" fill="#3F3D56"/>
<path d="M208.046 160.833H153.281V151.478H208.046V160.833ZM153.877 160.113H207.451V152.198H153.877V160.113Z" fill="#3F3D56"/>
<path d="M199.415 179.903H161.913V169.828H199.415V179.903ZM162.508 179.183H198.819V170.548H162.508V179.183Z" fill="#3F3D56"/>
<path d="M206.558 129.89C206.558 130.631 206.369 131.353 206.016 131.959C205.664 132.565 205.165 133.025 204.589 133.275C204.012 133.526 203.386 133.556 202.795 133.36C202.204 133.164 201.677 132.753 201.287 132.182L201.284 132.178C200.999 131.761 200.796 131.272 200.69 130.746C200.583 130.221 200.576 129.674 200.669 129.145C200.761 128.616 200.951 128.119 201.225 127.691C201.498 127.263 201.848 126.915 202.247 126.673C202.647 126.431 203.087 126.3 203.535 126.292C203.982 126.284 204.425 126.398 204.831 126.625C205.237 126.852 205.595 127.187 205.879 127.604C206.163 128.022 206.366 128.512 206.472 129.037C206.472 129.038 206.472 129.038 206.472 129.038C206.472 129.039 206.472 129.039 206.472 129.04C206.473 129.04 206.473 129.04 206.473 129.04C206.474 129.041 206.474 129.041 206.475 129.041C206.53 129.319 206.558 129.604 206.558 129.89V129.89Z" fill="#75E8E1"/>
<path opacity="0.1" d="M206.558 129.89C206.558 130.631 206.369 131.353 206.016 131.959C205.664 132.565 205.165 133.025 204.589 133.275C204.012 133.526 203.386 133.556 202.795 133.36C202.204 133.164 201.677 132.753 201.287 132.182L201.284 132.178C201.229 131.9 201.201 131.615 201.2 131.329C201.2 130.588 201.39 129.866 201.742 129.26C202.095 128.654 202.593 128.194 203.17 127.943C203.746 127.693 204.373 127.663 204.964 127.859C205.555 128.055 206.081 128.466 206.472 129.037C206.472 129.038 206.472 129.038 206.472 129.038C206.472 129.039 206.472 129.039 206.472 129.04C206.473 129.04 206.473 129.04 206.473 129.04C206.474 129.041 206.474 129.041 206.475 129.041C206.529 129.319 206.557 129.604 206.558 129.89V129.89Z" fill="black"/>
<path d="M204.772 135.647C206.416 135.647 207.748 134.036 207.748 132.049C207.748 130.061 206.416 128.451 204.772 128.451C203.128 128.451 201.796 130.061 201.796 132.049C201.796 134.036 203.128 135.647 204.772 135.647Z" fill="#75E8E1"/>
<path d="M206.558 157.235C206.558 157.976 206.369 158.698 206.016 159.304C205.664 159.91 205.165 160.37 204.589 160.621C204.012 160.871 203.386 160.901 202.795 160.705C202.204 160.509 201.677 160.098 201.287 159.527L201.284 159.523C200.999 159.106 200.796 158.617 200.69 158.092C200.583 157.566 200.576 157.019 200.669 156.49C200.761 155.961 200.951 155.464 201.225 155.036C201.498 154.608 201.848 154.26 202.247 154.018C202.647 153.776 203.087 153.646 203.535 153.637C203.982 153.629 204.425 153.743 204.831 153.97C205.237 154.197 205.595 154.532 205.879 154.95C206.163 155.367 206.366 155.857 206.472 156.382C206.472 156.383 206.472 156.383 206.472 156.384C206.472 156.384 206.472 156.385 206.472 156.385C206.473 156.385 206.473 156.385 206.473 156.386C206.474 156.386 206.474 156.386 206.475 156.386C206.53 156.664 206.558 156.949 206.558 157.235V157.235Z" fill="#75E8E1"/>
<path opacity="0.1" d="M206.558 157.235C206.558 157.976 206.369 158.698 206.016 159.304C205.664 159.91 205.165 160.37 204.589 160.621C204.012 160.871 203.386 160.901 202.795 160.705C202.204 160.509 201.677 160.098 201.287 159.527L201.284 159.523C201.229 159.245 201.201 158.96 201.2 158.674C201.2 157.934 201.39 157.211 201.742 156.605C202.095 155.999 202.593 155.539 203.17 155.289C203.746 155.038 204.373 155.008 204.964 155.204C205.555 155.4 206.081 155.811 206.472 156.382C206.472 156.383 206.472 156.383 206.472 156.384C206.472 156.384 206.472 156.384 206.472 156.385C206.473 156.385 206.473 156.385 206.473 156.386C206.474 156.386 206.474 156.386 206.475 156.386C206.529 156.664 206.557 156.949 206.558 157.235V157.235Z" fill="black"/>
<path d="M204.772 162.992C206.416 162.992 207.748 161.381 207.748 159.394C207.748 157.407 206.416 155.796 204.772 155.796C203.128 155.796 201.796 157.407 201.796 159.394C201.796 161.381 203.128 162.992 204.772 162.992Z" fill="#75E8E1"/>
<path d="M154.77 17.2707H139.293V35.9805H154.77V17.2707Z" fill="#F0F0F0"/>
<path d="M199.712 30.9433C199.006 30.9433 198.315 30.6901 197.728 30.2156C197.141 29.7412 196.683 29.0669 196.413 28.2779C196.142 27.489 196.072 26.6208 196.209 25.7833C196.347 24.9457 196.687 24.1764 197.187 23.5726C197.686 22.9687 198.323 22.5575 199.016 22.3909C199.708 22.2243 200.427 22.3098 201.079 22.6366C201.732 22.9634 202.29 23.5168 202.682 24.2268C203.075 24.9369 203.284 25.7717 203.284 26.6256C203.283 27.7703 202.906 28.8678 202.237 29.6772C201.567 30.4867 200.659 30.942 199.712 30.9433V30.9433ZM199.712 23.0276C199.124 23.0276 198.548 23.2386 198.059 23.6339C197.569 24.0293 197.188 24.5912 196.963 25.2487C196.737 25.9062 196.678 26.6296 196.793 27.3276C196.908 28.0255 197.192 28.6666 197.608 29.1698C198.024 29.673 198.554 30.0157 199.132 30.1545C199.709 30.2934 200.307 30.2221 200.851 29.9498C201.395 29.6775 201.86 29.2163 202.187 28.6246C202.514 28.0329 202.689 27.3372 202.689 26.6256C202.688 25.6717 202.374 24.7571 201.816 24.0826C201.258 23.4081 200.501 23.0286 199.712 23.0276V23.0276Z" fill="#3F3D56"/>
<path d="M121.137 91.0308H113.398V81.6758H121.137V91.0308ZM113.994 90.3112H120.542V82.3955H113.994V90.3112Z" fill="#3F3D56"/>
<path d="M239 160.833H231.262V151.478H239V160.833ZM231.857 160.113H238.405V152.198H231.857V160.113Z" fill="#3F3D56"/>
<path d="M86.3146 98.1069L87.6426 98.9715L92.1613 101.916L99.4564 106.667L103.708 97.1318C104.108 96.2359 104.358 95.2533 104.444 94.2402C104.53 93.2272 104.45 92.2036 104.208 91.2281C103.967 90.2526 103.568 89.3443 103.036 88.5552C102.503 87.7661 101.847 87.1117 101.105 86.6294C99.5198 85.5944 97.7034 85.1946 95.9179 85.4874C94.1324 85.7803 92.4698 86.7508 91.1698 88.2591L91.1676 88.2618C90.5279 89.0044 89.9882 89.8633 89.5677 90.8072L86.3146 98.1069Z" fill="#2F2E41"/>
<path d="M106.226 195.352L105.334 207.203L101.992 207.742L99.7639 194.274L106.226 195.352Z" fill="#FFB8B8"/>
<path d="M101.101 207.742C101.101 207.742 105.334 205.049 106.226 207.203C106.226 207.203 105.557 213.668 108.231 214.476C110.905 215.284 112.019 220.941 108.231 221.48C104.443 222.018 101.992 220.402 100.655 220.402C99.3182 220.402 100.655 214.746 100.655 214.746L101.101 207.742Z" fill="#2F2E41"/>
<path d="M79.2647 195.352L80.1561 207.203L83.4982 207.742L85.7263 194.274L79.2647 195.352Z" fill="#FFB8B8"/>
<path d="M84.3895 207.742C84.3895 207.742 80.1559 205.049 79.2647 207.203C79.2647 207.203 79.9331 213.668 77.2593 214.476C74.5855 215.284 73.4714 220.941 77.2593 221.48C81.0472 222.018 83.4982 220.402 84.8351 220.402C86.172 220.402 84.8351 214.746 84.8351 214.746L84.3895 207.742Z" fill="#2F2E41"/>
<path d="M97.5357 100.267C100.735 100.267 103.329 97.1317 103.329 93.2638C103.329 89.3959 100.735 86.2604 97.5357 86.2604C94.3362 86.2604 91.7424 89.3959 91.7424 93.2638C91.7424 97.1317 94.3362 100.267 97.5357 100.267Z" fill="#FFB8B8"/>
<path d="M79.0418 107.001L83.721 115.89L89.2914 115.351L98.427 116.159C98.427 116.159 99.2893 114.075 99.9934 112.046C100.379 111.033 100.675 109.974 100.878 108.887C101.101 107.001 97.9813 105.116 97.9813 105.116C97.9813 105.116 97.8587 105.089 97.6538 105.03C97.3819 104.951 96.963 104.822 96.504 104.634C95.4679 104.208 94.2224 103.486 93.9706 102.422C93.5249 100.537 96.8672 97.843 96.8672 97.843L92.8565 93.2638C92.8565 93.2638 89.2937 99.2463 84.9666 100.609C84.7157 100.689 84.4612 100.752 84.2045 100.798C84.1911 100.801 84.18 100.803 84.1666 100.806C79.4875 101.614 79.0418 107.001 79.0418 107.001Z" fill="#FFB8B8"/>
<path d="M81.4928 104.577L79.0418 107.001C79.0418 107.001 77.0365 118.584 77.7049 121.816C78.3734 125.048 77.4821 128.011 77.4821 128.55C77.4821 129.089 75.4768 149.291 75.4768 149.291C75.4768 149.291 71.466 160.065 75.6996 158.988C79.9331 157.91 78.3734 147.136 78.3734 147.136L83.4982 128.281V112.388L81.4928 104.577Z" fill="#FFB8B8"/>
<path d="M99.0954 106.732L100.878 108.348L101.769 130.974L108.454 150.368C108.454 150.368 113.356 159.796 110.236 160.065C107.117 160.335 105.111 150.368 105.111 150.368L99.0954 131.782L98.2041 113.735L99.0954 106.732Z" fill="#FFB8B8"/>
<path d="M87.9545 108.348C87.9545 108.348 92.4109 112.119 99.541 110.772C99.541 110.772 101.546 115.621 100.432 118.314C99.3182 121.008 101.769 127.473 102.215 128.281C102.66 129.089 107.785 145.789 109.568 163.836C111.35 181.883 116.252 194.274 112.019 195.89C107.785 197.506 99.0954 199.392 98.2041 197.776C97.3129 196.16 95.976 156.025 95.976 156.025L93.525 171.378C93.525 171.378 96.8672 197.506 94.4162 198.045C91.9652 198.584 76.5908 196.968 77.0365 193.735C77.4821 190.503 81.9385 173.533 81.9385 173.533C81.9385 173.533 81.7156 139.594 86.172 133.129C86.172 133.129 87.9545 129.628 85.5036 125.048C83.0526 120.469 83.2754 113.196 83.2754 113.196C83.2754 113.196 85.0579 113.196 87.9545 108.348Z" fill="#2F2E41"/>
<path d="M84.2045 100.798L87.9547 110.772L88.8458 110.234L84.9664 100.609L84.2045 100.798Z" fill="#2F2E41"/>
<path d="M96.5041 104.634L99.3182 112.119L99.9934 112.046L99.7639 110.772L97.6538 105.029C97.382 104.951 96.963 104.822 96.5041 104.634Z" fill="#2F2E41"/>
<path d="M87.6426 98.9715C87.8568 99.8048 88.2697 100.543 88.8296 101.094C89.3894 101.645 90.0712 101.984 90.7896 102.068C91.5081 102.153 92.2312 101.979 92.8683 101.569C93.5055 101.159 94.0285 100.531 94.3717 99.7635C91.553 95.3082 93.9706 92.5096 98.5495 90.3924C98.8944 89.6186 99.041 88.7382 98.9708 87.8633C98.9006 86.9884 98.6166 86.1585 98.1551 85.4793C96.893 85.2841 95.6108 85.4324 94.4022 85.9134C93.1936 86.3944 92.0892 87.1958 91.1698 88.2591L91.1675 88.2618L87.9144 95.5561C87.6828 96.0746 87.5393 96.6439 87.4926 97.2305C87.446 97.8172 87.4969 98.4091 87.6426 98.9715V98.9715Z" fill="#2F2E41"/>
<path d="M94.082 95.688C94.5127 95.688 94.8619 94.9644 94.8619 94.0719C94.8619 93.1793 94.5127 92.4557 94.082 92.4557C93.6513 92.4557 93.3022 93.1793 93.3022 94.0719C93.3022 94.9644 93.6513 95.688 94.082 95.688Z" fill="#FFB8B8"/>
<path d="M96.406 91.4348L103.104 95.1035L104.332 91.8281C104.12 90.631 103.677 89.5114 103.039 88.5607L98.4292 86.0368L96.406 91.4348Z" fill="#2F2E41"/>
<path d="M112.506 163.712C114.149 163.712 115.482 162.101 115.482 160.113C115.482 158.126 114.149 156.515 112.506 156.515C110.862 156.515 109.529 158.126 109.529 160.113C109.529 162.101 110.862 163.712 112.506 163.712Z" fill="#75E8E1"/>
<path d="M16.9522 185.101C18.0265 185.101 18.8973 184.048 18.8973 182.749C18.8973 181.451 18.0265 180.398 16.9522 180.398C15.8779 180.398 15.007 181.451 15.007 182.749C15.007 184.048 15.8779 185.101 16.9522 185.101Z" fill="#FF6584"/>
<path d="M26.7797 195.005H26.1844V221.778H26.7797V195.005Z" fill="#3F3D56"/>
<path d="M26.482 198.791C28.2118 198.791 29.614 197.096 29.614 195.005C29.614 192.914 28.2118 191.218 26.482 191.218C24.7523 191.218 23.3501 192.914 23.3501 195.005C23.3501 197.096 24.7523 198.791 26.482 198.791Z" fill="#3F3D56"/>
<path d="M26.482 211.506C26.482 211.506 26.0346 199.873 16.8625 201.225Z" fill="#3F3D56"/>
</g>
<defs>
<clipPath id="clip0_10_59">
<rect width="239" height="222" fill="white"/>
</clipPath>
</defs>
</svg>
