<svg width="213" height="223" viewBox="0 0 213 223" fill="none" xmlns="http://www.w3.org/2000/svg">
<g clip-path="url(#clip0_6_0)">
<path d="M125.084 57.2487H118.769C118.447 57.2482 118.138 57.0902 117.911 56.8092C117.683 56.5282 117.555 56.1473 117.554 55.75V47.957C117.555 47.5597 117.683 47.1787 117.911 46.8978C118.138 46.6168 118.447 46.4588 118.769 46.4583H125.084C125.406 46.4588 125.714 46.6168 125.942 46.8978C126.17 47.1787 126.298 47.5597 126.298 47.957V55.75C126.298 56.1473 126.17 56.5282 125.942 56.8092C125.714 57.0902 125.406 57.2482 125.084 57.2487ZM118.769 47.0578C118.576 47.0581 118.39 47.1529 118.254 47.3214C118.117 47.49 118.04 47.7186 118.04 47.957V55.75C118.04 55.9884 118.117 56.217 118.254 56.3855C118.39 56.5541 118.576 56.6489 118.769 56.6492H125.084C125.277 56.6489 125.462 56.5541 125.599 56.3855C125.735 56.217 125.812 55.9884 125.812 55.75V47.957C125.812 47.7186 125.735 47.49 125.599 47.3214C125.462 47.1529 125.277 47.0581 125.084 47.0578H118.769Z" fill="#E6E6E6"/>
<path d="M51.4908 10.7903H45.1759C44.8539 10.7899 44.5452 10.6318 44.3176 10.3509C44.0899 10.0699 43.9619 9.68899 43.9615 9.29167V1.49866C43.9619 1.10133 44.0899 0.720402 44.3176 0.439448C44.5452 0.158494 44.8539 0.000454558 45.1759 0H51.4908C51.8128 0.000454558 52.1214 0.158494 52.3491 0.439448C52.5768 0.720402 52.7048 1.10133 52.7052 1.49866V9.29167C52.7048 9.68899 52.5768 10.0699 52.3491 10.3509C52.1214 10.6318 51.8128 10.7899 51.4908 10.7903ZM45.1759 0.599462C44.9827 0.599723 44.7975 0.694542 44.6609 0.863117C44.5243 1.03169 44.4475 1.26025 44.4472 1.49866V9.29167C44.4475 9.53007 44.5243 9.75863 44.6609 9.9272C44.7975 10.0958 44.9827 10.1906 45.1759 10.1909H51.4908C51.684 10.1906 51.8692 10.0958 52.0058 9.9272C52.1424 9.75863 52.2192 9.53007 52.2194 9.29167V1.49866C52.2192 1.26025 52.1424 1.03169 52.0058 0.863117C51.8692 0.694542 51.684 0.599723 51.4908 0.599462H45.1759Z" fill="#E6E6E6"/>
<path d="M121.198 53.3521H114.883C114.561 53.3517 114.252 53.1937 114.024 52.9127C113.797 52.6317 113.669 52.2508 113.668 51.8535V44.0605C113.669 43.6632 113.797 43.2822 114.024 43.0013C114.252 42.7203 114.561 42.5623 114.883 42.5618H121.198C121.52 42.5623 121.828 42.7203 122.056 43.0013C122.284 43.2822 122.412 43.6632 122.412 44.0605V51.8535C122.412 52.2508 122.284 52.6317 122.056 52.9127C121.828 53.1937 121.52 53.3517 121.198 53.3521ZM114.883 43.1613C114.69 43.1616 114.504 43.2564 114.368 43.4249C114.231 43.5935 114.154 43.8221 114.154 44.0605V51.8535C114.154 52.0919 114.231 52.3205 114.368 52.489C114.504 52.6576 114.69 52.7524 114.883 52.7527H121.198C121.391 52.7524 121.576 52.6576 121.713 52.489C121.849 52.3205 121.926 52.0919 121.926 51.8535V44.0605C121.926 43.8221 121.849 43.5935 121.713 43.4249C121.576 43.2564 121.391 43.1616 121.198 43.1613H114.883Z" fill="#E6E6E6"/>
<path d="M11.4154 118.394H5.10051C4.77855 118.393 4.46987 118.235 4.24221 117.954C4.01454 117.673 3.88648 117.293 3.88611 116.895V109.102C3.88648 108.705 4.01454 108.324 4.24221 108.043C4.46987 107.762 4.77855 107.604 5.10051 107.603H11.4154C11.7374 107.604 12.0461 107.762 12.2737 108.043C12.5014 108.324 12.6295 108.705 12.6298 109.102V116.895C12.6295 117.293 12.5014 117.673 12.2737 117.954C12.0461 118.235 11.7374 118.393 11.4154 118.394ZM5.10051 108.203C4.90733 108.203 4.72212 108.298 4.58552 108.467C4.44892 108.635 4.37208 108.864 4.37187 109.102V116.895C4.37208 117.134 4.44892 117.362 4.58552 117.531C4.72212 117.699 4.90733 117.794 5.10051 117.794H11.4154C11.6086 117.794 11.7938 117.699 11.9304 117.531C12.067 117.362 12.1439 117.134 12.1441 116.895V109.102C12.1439 108.864 12.067 108.635 11.9304 108.467C11.7938 108.298 11.6086 108.203 11.4154 108.203H5.10051Z" fill="#E6E6E6"/>
<path d="M7.52931 114.497H1.21441C0.892438 114.497 0.583763 114.339 0.356098 114.058C0.128432 113.777 0.000368342 113.396 0 112.999V105.206C0.000368342 104.808 0.128432 104.427 0.356098 104.146C0.583763 103.865 0.892438 103.707 1.21441 103.707H7.52931C7.85128 103.707 8.15996 103.865 8.38762 104.146C8.61529 104.427 8.74335 104.808 8.74372 105.206V112.999C8.74335 113.396 8.61529 113.777 8.38762 114.058C8.15996 114.339 7.85128 114.497 7.52931 114.497ZM1.21441 104.306C1.02122 104.307 0.836011 104.402 0.69941 104.57C0.562808 104.739 0.485973 104.967 0.485762 105.206V112.999C0.485973 113.237 0.562808 113.466 0.69941 113.634C0.836011 113.803 1.02122 113.898 1.21441 113.898H7.52931C7.7225 113.898 7.90771 113.803 8.04431 113.634C8.18091 113.466 8.25775 113.237 8.25796 112.999V105.206C8.25775 104.967 8.18091 104.739 8.04431 104.57C7.90771 104.402 7.7225 104.307 7.52931 104.306H1.21441Z" fill="#E6E6E6"/>
<path d="M22.4494 25.7884H80.8903C83.7104 25.7884 86.4466 26.9725 88.6491 29.1459C90.8516 31.3194 92.3893 34.3529 93.0095 37.7479L122.539 199.383C122.861 201.146 122.866 202.975 122.555 204.741C122.244 206.507 121.624 208.167 120.737 209.606C119.851 211.045 118.721 212.227 117.425 213.07C116.13 213.913 114.7 214.395 113.238 214.484L53.16 218.137C49.9431 218.333 46.7783 217.077 44.2563 214.605C41.7344 212.133 40.0275 208.612 39.4542 204.701L22.7035 90.423L21.4573 90.8624L18.2522 69.2025L19.535 68.8068L14.8593 36.9077C14.659 35.5414 14.7054 34.1374 14.9953 32.7958C15.2851 31.4542 15.8112 30.208 16.5361 29.1461C17.261 28.0842 18.1668 27.2327 19.1889 26.6523C20.211 26.0719 21.3243 25.777 22.4494 25.7885V25.7884Z" fill="#3F3D56"/>
<path d="M73.1966 29.2729H80.0185C81.9776 29.2729 83.8777 30.0997 85.4035 31.6162C86.9294 33.1326 87.989 35.2474 88.4066 37.6095L116.75 197.926C116.914 198.849 116.914 199.805 116.75 200.727C116.587 201.65 116.264 202.519 115.803 203.274C115.343 204.028 114.756 204.652 114.082 205.101C113.409 205.55 112.665 205.815 111.901 205.876L52.0174 210.72C50.328 210.856 48.657 210.221 47.3232 208.934C45.9894 207.647 45.0863 205.799 44.7862 203.743L20.6002 38.0401C20.4437 36.9676 20.4798 35.8658 20.706 34.8124C20.9322 33.759 21.343 32.7797 21.9093 31.9436C22.4757 31.1075 23.1839 30.435 23.9839 29.9735C24.7838 29.5121 25.6561 29.2729 26.5392 29.2729H33.0108C33.6371 29.2729 34.246 29.5277 34.7432 29.9979C35.2403 30.4681 35.598 31.1274 35.7608 31.8738C35.9046 32.5327 36.2204 33.1148 36.6593 33.5299C37.0982 33.945 37.6357 34.1699 38.1887 34.1699H68.9114C69.9942 34.1699 71.0371 33.6656 71.8316 32.7576C72.6261 31.8497 73.1136 30.6052 73.1966 29.2729L73.1966 29.2729Z" fill="white"/>
<path d="M25.2596 56.5311H90.2245L97.1454 95.0148L31.3317 96.5134L25.2596 56.5311Z" fill="#B5FFF6"/>
<path d="M86.9514 129.41H102.246L102.732 133.023H87.4372L86.9514 129.41Z" fill="#B5FFF6"/>
<path d="M99.3954 110.977L34.5305 112.672L34.5369 113.049L99.4019 111.354L99.3954 110.977Z" fill="#2F2E41"/>
<path d="M101.379 122.09L35.2933 123.973L35.3003 124.35L101.386 122.467L101.379 122.09Z" fill="#2F2E41"/>
<path d="M93.2663 168.075H108.561L109.047 171.689H93.7521L93.2663 168.075Z" fill="#B5FFF6"/>
<path d="M105.71 149.643L40.8454 151.338L40.8518 151.714L105.717 150.019L105.71 149.643Z" fill="#2F2E41"/>
<path d="M107.694 160.755L41.6082 162.639L41.6152 163.015L107.701 161.132L107.694 160.755Z" fill="#2F2E41"/>
<path d="M149.508 219.166L146.614 219.165L145.237 205.391L149.508 205.391L149.508 219.166Z" fill="#A0616A"/>
<path d="M150.246 222.627L140.915 222.627V222.481C140.915 221.293 141.297 220.153 141.979 219.312C142.66 218.472 143.583 217.999 144.547 217.999H144.547L150.246 218L150.246 222.627Z" fill="#2F2E41"/>
<path d="M185.458 216.827L182.641 217.646L178.742 204.627L182.9 203.419L185.458 216.827Z" fill="#A0616A"/>
<path d="M186.82 219.988L177.737 222.627L177.71 222.486C177.489 221.328 177.65 220.111 178.157 219.1C178.663 218.089 179.475 217.368 180.412 217.095L180.413 217.095L185.96 215.483L186.82 219.988Z" fill="#2F2E41"/>
<path d="M148.917 161.065C148.922 160.348 149.094 143.407 152.857 137.001L152.913 136.907L166.027 139.139L165.733 142.695C166.31 143.387 170.847 149.238 172.157 163.093L186.076 209.226L179.605 209.952L160.451 159.592L150.314 214.333H143.899L148.917 161.065Z" fill="#2F2E41"/>
<path d="M151.321 137.626L152.603 129.321C152.352 128.922 151.24 127.008 151.488 124.764C151.649 123.3 152.357 122.016 153.593 120.947L156.915 111.38L156.96 111.347C157.184 111.185 162.474 107.41 165.358 110.971C165.43 111.04 172.531 117.996 169.68 127.38L166.16 140.414L151.321 137.626Z" fill="#CCCCCC"/>
<path d="M146.861 148.862C147.207 148.813 147.54 148.672 147.836 148.447C148.133 148.222 148.385 147.92 148.577 147.562C148.769 147.204 148.894 146.798 148.945 146.373C148.996 145.948 148.971 145.515 148.871 145.104L155.733 139.003L151.625 137.075L145.739 143.164C145.19 143.416 144.735 143.908 144.461 144.546C144.186 145.185 144.111 145.926 144.249 146.628C144.387 147.33 144.73 147.946 145.211 148.358C145.692 148.769 146.28 148.949 146.861 148.862Z" fill="#A0616A"/>
<path d="M148.122 138.993L158.598 128.808L155.483 115.677C155.337 115.055 155.295 114.403 155.361 113.76C155.428 113.118 155.601 112.499 155.869 111.943C156.118 111.419 156.453 110.964 156.852 110.608C157.251 110.253 157.706 110.004 158.188 109.878C159.981 109.409 161.609 110.649 163.025 113.561L163.036 113.588C163.27 114.294 168.728 130.942 164.561 134.503C160.485 137.985 151.033 143.055 150.937 143.106L150.827 143.165L148.122 138.993Z" fill="#CCCCCC"/>
<path d="M162.045 107.509C165.549 107.509 168.391 104.002 168.391 99.6774C168.391 95.3523 165.549 91.8461 162.045 91.8461C158.54 91.8461 155.699 95.3523 155.699 99.6774C155.699 104.002 158.54 107.509 162.045 107.509Z" fill="#A0616A"/>
<path d="M171.993 96.8817C175.094 96.8817 177.608 93.7799 177.608 89.9536C177.608 86.1273 175.094 83.0255 171.993 83.0255C168.893 83.0255 166.379 86.1273 166.379 89.9536C166.379 93.7799 168.893 96.8817 171.993 96.8817Z" fill="#2F2E41"/>
<path d="M176.836 95.6905C176.109 96.3386 175.267 96.7626 174.381 96.9269C173.494 97.0912 172.589 96.991 171.74 96.6348C170.891 96.2787 170.124 95.6768 169.502 94.8796C168.88 94.0824 168.422 93.1131 168.166 92.0527C168.263 93.003 168.519 93.9181 168.916 94.7404C169.314 95.5627 169.846 96.2743 170.478 96.8302C171.11 97.3861 171.829 97.7743 172.588 97.9702C173.348 98.1661 174.132 98.1655 174.892 97.9685C175.651 97.7715 176.369 97.3822 177.001 96.8254C177.632 96.2686 178.163 95.5563 178.561 94.7334C178.958 93.9105 179.212 92.9949 179.308 92.0445C179.404 91.0941 179.339 90.1295 179.118 89.2115C179.244 90.4448 179.098 91.6971 178.697 92.8371C178.295 93.977 177.652 94.9627 176.836 95.6905Z" fill="#2F2E41"/>
<path d="M154.68 95.6982C155.66 93.5329 156.035 92.6284 157.299 91.3117C158.417 90.1473 159.791 89.8053 160.9 90.9087C162.211 90.2094 163.671 90.0508 165.061 90.4565C166.452 90.8622 167.699 91.8106 168.618 93.1608C169.536 94.511 170.078 96.1909 170.161 97.951C170.245 99.7111 169.866 101.458 169.081 102.931C168.297 104.404 167.148 105.526 165.805 106.129C164.463 106.733 162.998 106.785 161.63 106.28C160.261 105.774 159.061 104.737 158.208 103.323C157.354 101.909 156.894 100.193 156.894 98.4296C156.895 98.12 156.91 97.8107 156.939 97.5032C155.975 97.3361 155.644 95.8653 154.68 95.6982Z" fill="#2F2E41"/>
<path d="M212.757 223H120.219C120.155 223 120.093 222.968 120.048 222.912C120.002 222.856 119.977 222.78 119.977 222.7C119.977 222.621 120.002 222.545 120.048 222.488C120.093 222.432 120.155 222.401 120.219 222.401H212.757C212.822 222.401 212.883 222.432 212.929 222.488C212.974 222.545 213 222.621 213 222.7C213 222.78 212.974 222.856 212.929 222.912C212.883 222.968 212.822 223 212.757 223Z" fill="#3F3D56"/>
</g>
<defs>
<clipPath id="clip0_6_0">
<rect width="213" height="223" fill="white"/>
</clipPath>
</defs>
</svg>
